<?xml version="1.0" encoding="UTF-8" standalone="no"?>
<svg
   viewBox="0 0 427.10401 65.7"
   version="1.1"
   id="svg54"
   sodipodi:docname="jobleLogoBleu.svg"
   width="427.104"
   height="65.699997"
   inkscape:version="1.1 (c68e22c387, 2021-05-23)"
   xmlns:inkscape="http://www.inkscape.org/namespaces/inkscape"
   xmlns:sodipodi="http://sodipodi.sourceforge.net/DTD/sodipodi-0.dtd"
   xmlns:xlink="http://www.w3.org/1999/xlink"
   xmlns="http://www.w3.org/2000/svg"
   xmlns:svg="http://www.w3.org/2000/svg">
  <sodipodi:namedview
     id="namedview56"
     pagecolor="#c8c8c8"
     bordercolor="#666666"
     borderopacity="1.0"
     inkscape:pageshadow="2"
     inkscape:pageopacity="0"
     inkscape:pagecheckerboard="true"
     showgrid="false"
     inkscape:zoom="3.0805916"
     inkscape:cx="207.42769"
     inkscape:cy="32.948217"
     inkscape:window-width="3200"
     inkscape:window-height="1771"
     inkscape:window-x="-9"
     inkscape:window-y="-9"
     inkscape:window-maximized="1"
     inkscape:current-layer="svg54" />
  <defs
     id="defs22">
    <style
       id="style2">.cls-1{fill:url(#Dégradé_sans_nom_14);}.cls-2{fill:url(#Dégradé_sans_nom_14-2);}.cls-3{fill:url(#Dégradé_sans_nom_14-3);}.cls-4{fill:url(#Dégradé_sans_nom_14-4);}.cls-5{fill:url(#Dégradé_sans_nom_14-5);}.cls-6{fill:url(#Dégradé_sans_nom_14-6);}.cls-7{fill:url(#Dégradé_sans_nom_14-7);}.cls-8{fill:url(#Dégradé_sans_nom_14-8);}.cls-9{fill:url(#Dégradé_sans_nom_14-9);}.cls-10{fill:url(#Dégradé_sans_nom_14-10);}.cls-11{fill:url(#Dégradé_sans_nom_14-11);}.cls-12{fill:url(#Dégradé_sans_nom_14-12);}.cls-13{fill:url(#Dégradé_sans_nom_14-13);}.cls-14{fill:url(#Dégradé_sans_nom_14-14);}</style>
    <linearGradient
       id="Dégradé_sans_nom_14"
       x1="327.88"
       y1="-47.349998"
       x2="329.53"
       y2="65.160004"
       gradientUnits="userSpaceOnUse">
      <stop
         offset="0"
         stop-color="#a9b1de"
         id="stop4" />
      <stop
         offset="1"
         stop-color="#606fc2"
         id="stop6" />
    </linearGradient>
    <linearGradient
       id="Dégradé_sans_nom_14-2"
       x1="393.76999"
       y1="-42.810001"
       x2="395.35999"
       y2="65.43"
       xlink:href="#D%C3%A9grad%C3%A9_sans_nom_14"
       gradientTransform="translate(4)" />
    <linearGradient
       id="Dégradé_sans_nom_14-3"
       x1="349.60999"
       y1="-42.200001"
       x2="351.20001"
       y2="66.040001"
       xlink:href="#D%C3%A9grad%C3%A9_sans_nom_14"
       gradientTransform="translate(2)" />
    <linearGradient
       id="Dégradé_sans_nom_14-4"
       x1="393.32999"
       y1="-50.66"
       x2="395.09"
       y2="69.370003"
       xlink:href="#D%C3%A9grad%C3%A9_sans_nom_14"
       gradientTransform="translate(4)" />
    <linearGradient
       id="Dégradé_sans_nom_14-5"
       x1="349.17001"
       y1="-49.98"
       x2="350.92999"
       y2="70.040001"
       xlink:href="#D%C3%A9grad%C3%A9_sans_nom_14"
       gradientTransform="translate(2)" />
    <linearGradient
       id="Dégradé_sans_nom_14-6"
       x1="261.28"
       y1="-42.200001"
       x2="262.87"
       y2="66.040001"
       xlink:href="#D%C3%A9grad%C3%A9_sans_nom_14"
       gradientTransform="translate(-4)" />
    <linearGradient
       id="Dégradé_sans_nom_14-7"
       x1="260.84"
       y1="-49.98"
       x2="262.60001"
       y2="70.040001"
       xlink:href="#D%C3%A9grad%C3%A9_sans_nom_14"
       gradientTransform="translate(-4)" />
    <linearGradient
       id="Dégradé_sans_nom_14-8"
       x1="305.44"
       y1="-42.200001"
       x2="307.03"
       y2="66.040001"
       xlink:href="#D%C3%A9grad%C3%A9_sans_nom_14"
       gradientTransform="translate(-2)" />
    <linearGradient
       id="Dégradé_sans_nom_14-9"
       x1="305"
       y1="-49.98"
       x2="306.76999"
       y2="70.040001"
       xlink:href="#D%C3%A9grad%C3%A9_sans_nom_14"
       gradientTransform="translate(-2)" />
    <linearGradient
       id="Dégradé_sans_nom_14-10"
       x1="12.26"
       y1="-41.75"
       x2="13.96"
       y2="73.629997"
       xlink:href="#D%C3%A9grad%C3%A9_sans_nom_14"
       gradientTransform="translate(-8)" />
    <linearGradient
       id="Dégradé_sans_nom_14-11"
       x1="59.700001"
       y1="-42.450001"
       x2="61.389999"
       y2="72.93"
       xlink:href="#D%C3%A9grad%C3%A9_sans_nom_14"
       gradientTransform="translate(-8)" />
    <linearGradient
       id="Dégradé_sans_nom_14-12"
       x1="115.9"
       y1="-43.27"
       x2="117.6"
       y2="72.099998"
       xlink:href="#D%C3%A9grad%C3%A9_sans_nom_14"
       gradientTransform="translate(-8)" />
    <linearGradient
       id="Dégradé_sans_nom_14-13"
       x1="165.25999"
       y1="-44"
       x2="166.96001"
       y2="71.379997"
       xlink:href="#D%C3%A9grad%C3%A9_sans_nom_14"
       gradientTransform="translate(-8)" />
    <linearGradient
       id="Dégradé_sans_nom_14-14"
       x1="210.16"
       y1="-44.66"
       x2="211.86"
       y2="70.720001"
       xlink:href="#D%C3%A9grad%C3%A9_sans_nom_14"
       gradientTransform="translate(-8)" />
    <linearGradient
       inkscape:collect="always"
       xlink:href="#D%C3%A9grad%C3%A9_sans_nom_14"
       id="linearGradient873"
       gradientUnits="userSpaceOnUse"
       x1="327.88"
       y1="-47.349998"
       x2="329.53"
       y2="65.160004"
       gradientTransform="matrix(1.0461418,0,0,1,-15.237499,0)" />
  </defs>
  <g
     id="g918"
     transform="translate(8.0000753)">
    <path
       class="cls-1"
       d="m 242.11338,20.21 a 3.9962616,3.82 0 0 1 -3.92303,-3.87 V 3.86 A 3.9858002,3.81 0 0 1 242.11338,0 h 173.06323 a 3.9858002,3.81 0 0 1 3.92303,3.86 v 12.48 a 3.9962616,3.82 0 0 1 -3.92303,3.87 z"
       id="path24"
       style="fill:url(#linearGradient873);stroke-width:1.02281" />
    <rect
       class="cls-2"
       x="378.69"
       y="25.58"
       width="40.41"
       height="17.030001"
       rx="3.75"
       id="rect26"
       style="fill:url(#D%C3%A9grad%C3%A9_sans_nom_14-2)" />
    <rect
       class="cls-3"
       x="332.51999"
       y="25.58"
       width="40.41"
       height="17.030001"
       rx="3.75"
       id="rect28"
       style="fill:url(#D%C3%A9grad%C3%A9_sans_nom_14-3)" />
    <path
       class="cls-4"
       d="m 382.44,65.7 a 4,4 0 0 1 -3.75,-4.17 V 50.94 a 4,4 0 0 1 3.75,-4.18 h 32.91 a 4,4 0 0 1 3.75,4.18 v 10.59 a 4,4 0 0 1 -3.75,4.17 z"
       id="path30"
       style="fill:url(#D%C3%A9grad%C3%A9_sans_nom_14-4)" />
    <path
       class="cls-5"
       d="m 336.28,65.7 a 4,4 0 0 1 -3.76,-4.17 V 50.94 a 4,4 0 0 1 3.76,-4.18 h 32.91 a 4,4 0 0 1 3.75,4.18 v 10.59 a 4,4 0 0 1 -3.75,4.17 z"
       id="path32"
       style="fill:url(#D%C3%A9grad%C3%A9_sans_nom_14-5)" />
    <rect
       class="cls-6"
       x="238.19"
       y="25.58"
       width="40.41"
       height="17.030001"
       rx="3.75"
       id="rect34"
       style="fill:url(#D%C3%A9grad%C3%A9_sans_nom_14-6)" />
    <path
       class="cls-7"
       d="m 241.94,65.7 a 4,4 0 0 1 -3.75,-4.17 V 50.94 a 4,4 0 0 1 3.75,-4.18 h 32.91 a 4,4 0 0 1 3.76,4.18 v 10.59 a 4,4 0 0 1 -3.76,4.17 z"
       id="path36"
       style="fill:url(#D%C3%A9grad%C3%A9_sans_nom_14-7)" />
    <rect
       class="cls-8"
       x="284.35999"
       y="25.58"
       width="40.41"
       height="17.030001"
       rx="3.75"
       id="rect38"
       style="fill:url(#D%C3%A9grad%C3%A9_sans_nom_14-8)" />
    <path
       class="cls-9"
       d="m 288.11,65.7 a 4,4 0 0 1 -3.75,-4.17 V 50.94 a 4,4 0 0 1 3.75,-4.18 H 321 a 4,4 0 0 1 3.75,4.18 V 61.53 A 4,4 0 0 1 321,65.7 Z"
       id="path40"
       style="fill:url(#D%C3%A9grad%C3%A9_sans_nom_14-9)" />
    <path
       class="cls-10"
       d="m 14.63,3.62 a 4.1,4.1 0 0 1 4.1,4.1 V 44 q 0,10.06 -4.35,14.54 Q 10.03,63.02 0.52,63 A 46.89,46.89 0 0 1 -4.36,62.77 4.09,4.09 0 0 1 -8,58.68 V 58 a 4.11,4.11 0 0 1 4.31,-4.1 c 1,0.05 1.84,0.08 2.46,0.08 Q 4,54 6,52 8,50 7.93,44 V 7.72 A 4.1,4.1 0 0 1 12,3.62 Z"
       id="path42"
       style="fill:url(#D%C3%A9grad%C3%A9_sans_nom_14-10)" />
    <path
       class="cls-11"
       d="m 52.57,63 q -11.66,0 -18.14,-8.74 -6.48,-8.74 -6.49,-21.6 0,-12.76 6.89,-21.35 A 22.2,22.2 0 0 1 53,2.72 q 11.38,0 18,8.59 6.62,8.59 6.62,21.48 0,13.53 -6.88,21.86 -6.88,8.33 -18.17,8.35 z m 0.08,-8.49 a 12.13,12.13 0 0 0 9.64,-4.71 q 3.94,-4.71 3.94,-17.09 0,-10.07 -3.25,-15.78 A 10.82,10.82 0 0 0 52.87,11.2 q -13.54,0 -13.54,21.8 0,10.57 3.45,16 a 11,11 0 0 0 9.87,5.5 z"
       id="path44"
       style="fill:url(#D%C3%A9grad%C3%A9_sans_nom_14-11)" />
    <path
       class="cls-12"
       d="M 87.48,58 V 7.72 a 4.09,4.09 0 0 1 4.1,-4.1 h 18.68 a 32.48,32.48 0 0 1 9.6,1.2 13,13 0 0 1 6.6,5 14.79,14.79 0 0 1 2.78,9 13.16,13.16 0 0 1 -2.83,8.42 11.47,11.47 0 0 1 -1,1.16 4.14,4.14 0 0 0 0.41,6.3 12.39,12.39 0 0 1 2.18,2.07 14.41,14.41 0 0 1 3.17,9.34 15.74,15.74 0 0 1 -4.43,11.37 q -4.42,4.6 -13.64,4.61 H 91.58 A 4.1,4.1 0 0 1 87.48,58 Z m 10,-33.92 a 4.1,4.1 0 0 0 4.1,4.1 h 8.75 a 8.3,8.3 0 0 0 6.23,-2.35 8.24,8.24 0 0 0 2.29,-6 c 0,-2.69 -0.87,-4.66 -2.61,-5.93 A 10.13,10.13 0 0 0 110.09,12 h -8.53 a 4.1,4.1 0 0 0 -4.1,4.1 z m 0,25.14 a 4.09,4.09 0 0 0 4.1,4.1 h 9.52 a 9.77,9.77 0 0 0 6.81,-2.32 7.84,7.84 0 0 0 2.51,-6.12 7.85,7.85 0 0 0 -2.55,-6 9.56,9.56 0 0 0 -6.75,-2.36 h -9.56 a 4.1,4.1 0 0 0 -4.1,4.11 z"
       id="path46"
       style="fill:url(#D%C3%A9grad%C3%A9_sans_nom_14-12)" />
    <path
       class="cls-13"
       d="m 172.64,62.09 h -27.78 a 4.11,4.11 0 0 1 -4.1,-4.11 V 7.72 a 4.1,4.1 0 0 1 4.1,-4.1 h 2.89 a 4.1,4.1 0 0 1 4.11,4.1 v 40.71 a 4.09,4.09 0 0 0 4.1,4.1 h 16.68 a 4.1,4.1 0 0 1 4.1,4.11 V 58 a 4.1,4.1 0 0 1 -4.1,4.09 z"
       id="path48"
       style="fill:url(#D%C3%A9grad%C3%A9_sans_nom_14-13)" />
    <path
       class="cls-14"
       d="M 218.39,62.09 H 188.6 A 4.1,4.1 0 0 1 184.5,58 V 7.72 a 4.09,4.09 0 0 1 4.1,-4.1 H 218 a 4.09,4.09 0 0 1 4.1,4.1 v 0.49 a 4.09,4.09 0 0 1 -4.1,4.1 H 199.14 A 4.11,4.11 0 0 0 195,16.42 v 7.64 a 4.11,4.11 0 0 0 4.11,4.1 h 13.55 a 4.1,4.1 0 0 1 4.1,4.1 v 0.28 a 4.09,4.09 0 0 1 -4.1,4.1 h -13.52 a 4.11,4.11 0 0 0 -4.11,4.1 v 8.16 a 4.1,4.1 0 0 0 4.11,4.1 h 19.25 a 4.11,4.11 0 0 1 4.1,4.11 V 58 a 4.11,4.11 0 0 1 -4.1,4.09 z"
       id="path50"
       style="fill:url(#D%C3%A9grad%C3%A9_sans_nom_14-14)" />
  </g>
</svg>
